<?xml version="1.0" encoding="UTF-8" standalone="no"?>
<!DOCTYPE svg PUBLIC "-//W3C//DTD SVG 1.1//EN" "http://www.w3.org/Graphics/SVG/1.1/DTD/svg11.dtd">
<svg width="100%" height="100%" viewBox="0 0 671 147" version="1.1" xmlns="http://www.w3.org/2000/svg" xmlns:xlink="http://www.w3.org/1999/xlink" xml:space="preserve" xmlns:serif="http://www.serif.com/" style="fill-rule:evenodd;clip-rule:evenodd;stroke-linejoin:round;stroke-miterlimit:2;">
    <g transform="matrix(1,0,0,1,-880,-816)">
        <g id="necct-logo-white">
            <g>
                <g transform="matrix(1,0,0,1,0,284.24)">
                    <path d="M1026.84,678.197L1026.84,532.183L989.858,532.183L989.858,592.796L929.084,532.183L880.442,532.183L1026.84,678.197Z" style="fill:white;"/>
                </g>
                <g transform="matrix(1,0,0,1,0.487101,236.585)">
                    <path d="M953.156,701.829L904.173,652.845L904.173,701.829L953.156,701.829Z" style="fill:rgb(212,69,34);"/>
                </g>
            </g>
            <g transform="matrix(1.17547,0,0,1.17547,-197.325,163.864)">
                <g transform="matrix(206.935,0,0,207.03,1044.26,679.368)">
                    <path d="M0.048,-0L0.456,-0L0.456,-0.126L0.195,-0.126L0.195,-0.234L0.364,-0.234L0.364,-0.362L0.195,-0.362L0.195,-0.47L0.456,-0.469L0.456,-0.599L0.048,-0.6L0.048,-0Z" style="fill:white;fill-rule:nonzero;"/>
                </g>
                <g transform="matrix(194.091,0,0,194.091,1128.14,675.486)">
                    <path d="M0.054,-0.3C0.054,-0.121 0.189,0.02 0.379,0.02C0.49,0.02 0.573,-0.027 0.633,-0.09L0.535,-0.186C0.493,-0.145 0.439,-0.119 0.379,-0.119C0.272,-0.119 0.203,-0.199 0.203,-0.3C0.203,-0.401 0.272,-0.481 0.379,-0.481C0.439,-0.481 0.493,-0.455 0.535,-0.414L0.636,-0.51C0.572,-0.577 0.493,-0.62 0.379,-0.62C0.189,-0.62 0.054,-0.479 0.054,-0.3Z" style="fill:white;fill-rule:nonzero;"/>
                </g>
                <g transform="matrix(194.091,0,0,194.091,1241.02,675.486)">
                    <path d="M0.054,-0.3C0.054,-0.121 0.189,0.02 0.379,0.02C0.49,0.02 0.573,-0.027 0.633,-0.09L0.535,-0.186C0.493,-0.145 0.439,-0.119 0.379,-0.119C0.272,-0.119 0.203,-0.199 0.203,-0.3C0.203,-0.401 0.272,-0.481 0.379,-0.481C0.439,-0.481 0.493,-0.455 0.535,-0.414L0.636,-0.51C0.572,-0.577 0.493,-0.62 0.379,-0.62C0.189,-0.62 0.054,-0.479 0.054,-0.3Z" style="fill:white;fill-rule:nonzero;"/>
                </g>
                <g transform="matrix(194.091,0,0,207.03,1385.56,679.368)">
                    <path d="M0.154,-0L0.302,-0L0.302,-0.47L0.523,-0.47L0.523,-0.6L-0.065,-0.6L-0.065,-0.47L0.154,-0.47L0.154,-0Z" style="fill:white;fill-rule:nonzero;"/>
                </g>
            </g>
        </g>
    </g>
</svg>
